<?xml version="1.0" encoding="utf-8" standalone="no"?>
<!DOCTYPE svg PUBLIC "-//W3C//DTD SVG 1.1//EN"
  "http://www.w3.org/Graphics/SVG/1.1/DTD/svg11.dtd">
<!-- Created with matplotlib (https://matplotlib.org/) -->
<svg height="345.6pt" version="1.1" viewBox="0 0 460.8 345.6" width="460.8pt" xmlns="http://www.w3.org/2000/svg" xmlns:xlink="http://www.w3.org/1999/xlink">
 <defs>
  <style type="text/css">
*{stroke-linecap:butt;stroke-linejoin:round;}
  </style>
 </defs>
 <g id="figure_1">
  <g id="patch_1">
   <path d="M 0 345.6 
L 460.8 345.6 
L 460.8 0 
L 0 0 
z
" style="fill:#ffffff;"/>
  </g>
  <g id="axes_1">
   <g id="LineCollection_1">
    <path clip-path="url(#p16d2453032)" d="M 232.676814 133.302136 
L 289.466759 127.326681 
" style="fill:none;stroke:#777777;"/>
    <path clip-path="url(#p16d2453032)" d="M 232.676814 133.302136 
L 206.659107 70.091426 
" style="fill:none;stroke:#777777;"/>
    <path clip-path="url(#p16d2453032)" d="M 232.676814 133.302136 
L 217.40931 170.99267 
" style="fill:none;stroke:#777777;"/>
    <path clip-path="url(#p16d2453032)" d="M 232.676814 133.302136 
L 293.625276 177.309773 
" style="fill:none;stroke:#777777;"/>
    <path clip-path="url(#p16d2453032)" d="M 289.466759 127.326681 
L 217.40931 170.99267 
" style="fill:none;stroke:#777777;"/>
    <path clip-path="url(#p16d2453032)" d="M 289.466759 127.326681 
L 293.625276 177.309773 
" style="fill:none;stroke:#777777;"/>
    <path clip-path="url(#p16d2453032)" d="M 206.659107 70.091426 
L 217.40931 170.99267 
" style="fill:none;stroke:#777777;"/>
    <path clip-path="url(#p16d2453032)" d="M 206.659107 70.091426 
L 258.103916 92.143728 
" style="fill:none;stroke:#777777;"/>
    <path clip-path="url(#p16d2453032)" d="M 217.40931 170.99267 
L 258.103916 92.143728 
" style="fill:none;stroke:#777777;"/>
    <path clip-path="url(#p16d2453032)" d="M 217.40931 170.99267 
L 221.357847 261.968922 
" style="fill:none;stroke:#777777;"/>
    <path clip-path="url(#p16d2453032)" d="M 217.40931 170.99267 
L 160.66135 114.281363 
" style="fill:none;stroke:#777777;"/>
    <path clip-path="url(#p16d2453032)" d="M 217.40931 170.99267 
L 293.625276 177.309773 
" style="fill:none;stroke:#777777;"/>
    <path clip-path="url(#p16d2453032)" d="M 293.625276 177.309773 
L 258.103916 92.143728 
" style="fill:none;stroke:#777777;"/>
    <path clip-path="url(#p16d2453032)" d="M 293.625276 177.309773 
L 377.342472 178.533007 
" style="fill:none;stroke:#777777;"/>
    <path clip-path="url(#p16d2453032)" d="M 258.103916 92.143728 
L 352.544556 88.403724 
" style="fill:none;stroke:#777777;"/>
    <path clip-path="url(#p16d2453032)" d="M 258.103916 92.143728 
L 160.66135 114.281363 
" style="fill:none;stroke:#777777;"/>
    <path clip-path="url(#p16d2453032)" d="M 221.357847 261.968922 
L 300.879723 307.392714 
" style="fill:none;stroke:#777777;"/>
    <path clip-path="url(#p16d2453032)" d="M 221.357847 261.968922 
L 168.326147 325.454876 
" style="fill:none;stroke:#777777;"/>
    <path clip-path="url(#p16d2453032)" d="M 160.66135 114.281363 
L 88.665681 76.654613 
" style="fill:none;stroke:#777777;"/>
    <path clip-path="url(#p16d2453032)" d="M 352.544556 88.403724 
L 401.2474 20.145124 
" style="fill:none;stroke:#777777;"/>
    <path clip-path="url(#p16d2453032)" d="M 352.544556 88.403724 
L 377.342472 178.533007 
" style="fill:none;stroke:#777777;"/>
    <path clip-path="url(#p16d2453032)" d="M 377.342472 178.533007 
L 379.040069 270.134353 
" style="fill:none;stroke:#777777;"/>
    <path clip-path="url(#p16d2453032)" d="M 377.342472 178.533007 
L 436.671722 227.359589 
" style="fill:none;stroke:#777777;"/>
    <path clip-path="url(#p16d2453032)" d="M 88.665681 76.654613 
L 24.128278 34.821183 
" style="fill:none;stroke:#777777;"/>
    <path clip-path="url(#p16d2453032)" d="M 300.879723 307.392714 
L 379.040069 270.134353 
" style="fill:none;stroke:#777777;"/>
    <path clip-path="url(#p16d2453032)" d="M 379.040069 270.134353 
L 436.671722 227.359589 
" style="fill:none;stroke:#777777;"/>
   </g>
   <g id="PathCollection_1">
    <defs>
     <path d="M 0 8.660254 
C 2.296726 8.660254 4.499694 7.747755 6.123724 6.123724 
C 7.747755 4.499694 8.660254 2.296726 8.660254 0 
C 8.660254 -2.296726 7.747755 -4.499694 6.123724 -6.123724 
C 4.499694 -7.747755 2.296726 -8.660254 0 -8.660254 
C -2.296726 -8.660254 -4.499694 -7.747755 -6.123724 -6.123724 
C -7.747755 -4.499694 -8.660254 -2.296726 -8.660254 0 
C -8.660254 2.296726 -7.747755 4.499694 -6.123724 6.123724 
C -4.499694 7.747755 -2.296726 8.660254 0 8.660254 
z
" id="mc95bb4d626" style="stroke:#ffffff;"/>
    </defs>
    <g clip-path="url(#p16d2453032)">
     <use style="fill:#ffffff;stroke:#ffffff;" x="232.676814" xlink:href="#mc95bb4d626" y="133.302136"/>
     <use style="fill:#ffffff;stroke:#ffffff;" x="289.466759" xlink:href="#mc95bb4d626" y="127.326681"/>
     <use style="fill:#ffffff;stroke:#ffffff;" x="206.659107" xlink:href="#mc95bb4d626" y="70.091426"/>
     <use style="fill:#ffffff;stroke:#ffffff;" x="217.40931" xlink:href="#mc95bb4d626" y="170.99267"/>
     <use style="fill:#ffffff;stroke:#ffffff;" x="293.625276" xlink:href="#mc95bb4d626" y="177.309773"/>
     <use style="fill:#ffffff;stroke:#ffffff;" x="258.103916" xlink:href="#mc95bb4d626" y="92.143728"/>
     <use style="fill:#ffffff;stroke:#ffffff;" x="221.357847" xlink:href="#mc95bb4d626" y="261.968922"/>
     <use style="fill:#ffffff;stroke:#ffffff;" x="160.66135" xlink:href="#mc95bb4d626" y="114.281363"/>
     <use style="fill:#ffffff;stroke:#ffffff;" x="352.544556" xlink:href="#mc95bb4d626" y="88.403724"/>
     <use style="fill:#ffffff;stroke:#ffffff;" x="401.2474" xlink:href="#mc95bb4d626" y="20.145124"/>
     <use style="fill:#ffffff;stroke:#ffffff;" x="377.342472" xlink:href="#mc95bb4d626" y="178.533007"/>
     <use style="fill:#ffffff;stroke:#ffffff;" x="88.665681" xlink:href="#mc95bb4d626" y="76.654613"/>
     <use style="fill:#ffffff;stroke:#ffffff;" x="24.128278" xlink:href="#mc95bb4d626" y="34.821183"/>
     <use style="fill:#ffffff;stroke:#ffffff;" x="300.879723" xlink:href="#mc95bb4d626" y="307.392714"/>
     <use style="fill:#ffffff;stroke:#ffffff;" x="168.326147" xlink:href="#mc95bb4d626" y="325.454876"/>
     <use style="fill:#ffffff;stroke:#ffffff;" x="379.040069" xlink:href="#mc95bb4d626" y="270.134353"/>
     <use style="fill:#ffffff;stroke:#ffffff;" x="436.671722" xlink:href="#mc95bb4d626" y="227.359589"/>
    </g>
   </g>
   <g id="text_1">
    <g clip-path="url(#p16d2453032)">
     <!-- speed-module-2 -->
     <defs>
      <path d="M 3.078125 15.484375 
L 11.765625 16.84375 
Q 12.5 11.625 15.84375 8.84375 
Q 19.1875 6.0625 25.203125 6.0625 
Q 31.25 6.0625 34.171875 8.515625 
Q 37.109375 10.984375 37.109375 14.3125 
Q 37.109375 17.28125 34.515625 19 
Q 32.71875 20.171875 25.53125 21.96875 
Q 15.875 24.421875 12.140625 26.203125 
Q 8.40625 27.984375 6.46875 31.125 
Q 4.546875 34.28125 4.546875 38.09375 
Q 4.546875 41.546875 6.125 44.5 
Q 7.71875 47.46875 10.453125 49.421875 
Q 12.5 50.921875 16.03125 51.96875 
Q 19.578125 53.03125 23.640625 53.03125 
Q 29.734375 53.03125 34.34375 51.265625 
Q 38.96875 49.515625 41.15625 46.5 
Q 43.359375 43.5 44.1875 38.484375 
L 35.59375 37.3125 
Q 35.015625 41.3125 32.203125 43.546875 
Q 29.390625 45.796875 24.265625 45.796875 
Q 18.21875 45.796875 15.625 43.796875 
Q 13.03125 41.796875 13.03125 39.109375 
Q 13.03125 37.40625 14.109375 36.03125 
Q 15.1875 34.625 17.484375 33.6875 
Q 18.796875 33.203125 25.25 31.453125 
Q 34.578125 28.953125 38.25 27.359375 
Q 41.9375 25.78125 44.03125 22.75 
Q 46.140625 19.734375 46.140625 15.234375 
Q 46.140625 10.84375 43.578125 6.953125 
Q 41.015625 3.078125 36.171875 0.953125 
Q 31.34375 -1.171875 25.25 -1.171875 
Q 15.140625 -1.171875 9.84375 3.03125 
Q 4.546875 7.234375 3.078125 15.484375 
z
" id="ArialMT-115"/>
      <path d="M 6.59375 -19.875 
L 6.59375 51.859375 
L 14.59375 51.859375 
L 14.59375 45.125 
Q 17.4375 49.078125 21 51.046875 
Q 24.5625 53.03125 29.640625 53.03125 
Q 36.28125 53.03125 41.359375 49.609375 
Q 46.4375 46.1875 49.015625 39.953125 
Q 51.609375 33.734375 51.609375 26.3125 
Q 51.609375 18.359375 48.75 11.984375 
Q 45.90625 5.609375 40.453125 2.21875 
Q 35.015625 -1.171875 29 -1.171875 
Q 24.609375 -1.171875 21.109375 0.6875 
Q 17.625 2.546875 15.375 5.375 
L 15.375 -19.875 
z
M 14.546875 25.640625 
Q 14.546875 15.625 18.59375 10.84375 
Q 22.65625 6.0625 28.421875 6.0625 
Q 34.28125 6.0625 38.453125 11.015625 
Q 42.625 15.96875 42.625 26.375 
Q 42.625 36.28125 38.546875 41.203125 
Q 34.46875 46.140625 28.8125 46.140625 
Q 23.1875 46.140625 18.859375 40.890625 
Q 14.546875 35.640625 14.546875 25.640625 
z
" id="ArialMT-112"/>
      <path d="M 42.09375 16.703125 
L 51.171875 15.578125 
Q 49.03125 7.625 43.21875 3.21875 
Q 37.40625 -1.171875 28.375 -1.171875 
Q 17 -1.171875 10.328125 5.828125 
Q 3.65625 12.84375 3.65625 25.484375 
Q 3.65625 38.578125 10.390625 45.796875 
Q 17.140625 53.03125 27.875 53.03125 
Q 38.28125 53.03125 44.875 45.953125 
Q 51.46875 38.875 51.46875 26.03125 
Q 51.46875 25.25 51.421875 23.6875 
L 12.75 23.6875 
Q 13.234375 15.140625 17.578125 10.59375 
Q 21.921875 6.0625 28.421875 6.0625 
Q 33.25 6.0625 36.671875 8.59375 
Q 40.09375 11.140625 42.09375 16.703125 
z
M 13.234375 30.90625 
L 42.1875 30.90625 
Q 41.609375 37.453125 38.875 40.71875 
Q 34.671875 45.796875 27.984375 45.796875 
Q 21.921875 45.796875 17.796875 41.75 
Q 13.671875 37.703125 13.234375 30.90625 
z
" id="ArialMT-101"/>
      <path d="M 40.234375 0 
L 40.234375 6.546875 
Q 35.296875 -1.171875 25.734375 -1.171875 
Q 19.53125 -1.171875 14.328125 2.25 
Q 9.125 5.671875 6.265625 11.796875 
Q 3.421875 17.921875 3.421875 25.875 
Q 3.421875 33.640625 6 39.96875 
Q 8.59375 46.296875 13.765625 49.65625 
Q 18.953125 53.03125 25.34375 53.03125 
Q 30.03125 53.03125 33.6875 51.046875 
Q 37.359375 49.078125 39.65625 45.90625 
L 39.65625 71.578125 
L 48.390625 71.578125 
L 48.390625 0 
z
M 12.453125 25.875 
Q 12.453125 15.921875 16.640625 10.984375 
Q 20.84375 6.0625 26.5625 6.0625 
Q 32.328125 6.0625 36.34375 10.765625 
Q 40.375 15.484375 40.375 25.140625 
Q 40.375 35.796875 36.265625 40.765625 
Q 32.171875 45.75 26.171875 45.75 
Q 20.3125 45.75 16.375 40.96875 
Q 12.453125 36.1875 12.453125 25.875 
z
" id="ArialMT-100"/>
      <path d="M 3.171875 21.484375 
L 3.171875 30.328125 
L 30.171875 30.328125 
L 30.171875 21.484375 
z
" id="ArialMT-45"/>
      <path d="M 6.59375 0 
L 6.59375 51.859375 
L 14.453125 51.859375 
L 14.453125 44.578125 
Q 16.890625 48.390625 20.9375 50.703125 
Q 25 53.03125 30.171875 53.03125 
Q 35.9375 53.03125 39.625 50.640625 
Q 43.3125 48.25 44.828125 43.953125 
Q 50.984375 53.03125 60.84375 53.03125 
Q 68.5625 53.03125 72.703125 48.75 
Q 76.859375 44.484375 76.859375 35.59375 
L 76.859375 0 
L 68.109375 0 
L 68.109375 32.671875 
Q 68.109375 37.9375 67.25 40.25 
Q 66.40625 42.578125 64.15625 43.984375 
Q 61.921875 45.40625 58.890625 45.40625 
Q 53.421875 45.40625 49.796875 41.765625 
Q 46.1875 38.140625 46.1875 30.125 
L 46.1875 0 
L 37.40625 0 
L 37.40625 33.6875 
Q 37.40625 39.546875 35.25 42.46875 
Q 33.109375 45.40625 28.21875 45.40625 
Q 24.515625 45.40625 21.359375 43.453125 
Q 18.21875 41.5 16.796875 37.734375 
Q 15.375 33.984375 15.375 26.90625 
L 15.375 0 
z
" id="ArialMT-109"/>
      <path d="M 3.328125 25.921875 
Q 3.328125 40.328125 11.328125 47.265625 
Q 18.015625 53.03125 27.640625 53.03125 
Q 38.328125 53.03125 45.109375 46.015625 
Q 51.90625 39.015625 51.90625 26.65625 
Q 51.90625 16.65625 48.90625 10.90625 
Q 45.90625 5.171875 40.15625 2 
Q 34.421875 -1.171875 27.640625 -1.171875 
Q 16.75 -1.171875 10.03125 5.8125 
Q 3.328125 12.796875 3.328125 25.921875 
z
M 12.359375 25.921875 
Q 12.359375 15.96875 16.703125 11.015625 
Q 21.046875 6.0625 27.640625 6.0625 
Q 34.1875 6.0625 38.53125 11.03125 
Q 42.875 16.015625 42.875 26.21875 
Q 42.875 35.84375 38.5 40.796875 
Q 34.125 45.75 27.640625 45.75 
Q 21.046875 45.75 16.703125 40.8125 
Q 12.359375 35.890625 12.359375 25.921875 
z
" id="ArialMT-111"/>
      <path d="M 40.578125 0 
L 40.578125 7.625 
Q 34.515625 -1.171875 24.125 -1.171875 
Q 19.53125 -1.171875 15.546875 0.578125 
Q 11.578125 2.34375 9.640625 5 
Q 7.71875 7.671875 6.9375 11.53125 
Q 6.390625 14.109375 6.390625 19.734375 
L 6.390625 51.859375 
L 15.1875 51.859375 
L 15.1875 23.09375 
Q 15.1875 16.21875 15.71875 13.8125 
Q 16.546875 10.359375 19.234375 8.375 
Q 21.921875 6.390625 25.875 6.390625 
Q 29.828125 6.390625 33.296875 8.421875 
Q 36.765625 10.453125 38.203125 13.9375 
Q 39.65625 17.4375 39.65625 24.078125 
L 39.65625 51.859375 
L 48.4375 51.859375 
L 48.4375 0 
z
" id="ArialMT-117"/>
      <path d="M 6.390625 0 
L 6.390625 71.578125 
L 15.1875 71.578125 
L 15.1875 0 
z
" id="ArialMT-108"/>
      <path d="M 50.34375 8.453125 
L 50.34375 0 
L 3.03125 0 
Q 2.9375 3.171875 4.046875 6.109375 
Q 5.859375 10.9375 9.828125 15.625 
Q 13.8125 20.3125 21.34375 26.46875 
Q 33.015625 36.03125 37.109375 41.625 
Q 41.21875 47.21875 41.21875 52.203125 
Q 41.21875 57.421875 37.46875 61 
Q 33.734375 64.59375 27.734375 64.59375 
Q 21.390625 64.59375 17.578125 60.78125 
Q 13.765625 56.984375 13.71875 50.25 
L 4.6875 51.171875 
Q 5.609375 61.28125 11.65625 66.578125 
Q 17.71875 71.875 27.9375 71.875 
Q 38.234375 71.875 44.234375 66.15625 
Q 50.25 60.453125 50.25 52 
Q 50.25 47.703125 48.484375 43.546875 
Q 46.734375 39.40625 42.65625 34.8125 
Q 38.578125 30.21875 29.109375 22.21875 
Q 21.1875 15.578125 18.9375 13.203125 
Q 16.703125 10.84375 15.234375 8.453125 
z
" id="ArialMT-50"/>
     </defs>
     <g transform="translate(200.160096 135.642136)scale(0.09 -0.09)">
      <use xlink:href="#ArialMT-115"/>
      <use x="50" xlink:href="#ArialMT-112"/>
      <use x="105.615234" xlink:href="#ArialMT-101"/>
      <use x="161.230469" xlink:href="#ArialMT-101"/>
      <use x="216.845703" xlink:href="#ArialMT-100"/>
      <use x="272.460938" xlink:href="#ArialMT-45"/>
      <use x="305.761719" xlink:href="#ArialMT-109"/>
      <use x="389.0625" xlink:href="#ArialMT-111"/>
      <use x="444.677734" xlink:href="#ArialMT-100"/>
      <use x="500.292969" xlink:href="#ArialMT-117"/>
      <use x="555.908203" xlink:href="#ArialMT-108"/>
      <use x="578.125" xlink:href="#ArialMT-101"/>
      <use x="633.740234" xlink:href="#ArialMT-45"/>
      <use x="667.041016" xlink:href="#ArialMT-50"/>
     </g>
    </g>
   </g>
   <g id="text_2">
    <g clip-path="url(#p16d2453032)">
     <!-- speed-module-3 -->
     <defs>
      <path d="M 4.203125 18.890625 
L 12.984375 20.0625 
Q 14.5 12.59375 18.140625 9.296875 
Q 21.78125 6 27 6 
Q 33.203125 6 37.46875 10.296875 
Q 41.75 14.59375 41.75 20.953125 
Q 41.75 27 37.796875 30.921875 
Q 33.84375 34.859375 27.734375 34.859375 
Q 25.25 34.859375 21.53125 33.890625 
L 22.515625 41.609375 
Q 23.390625 41.5 23.921875 41.5 
Q 29.546875 41.5 34.03125 44.421875 
Q 38.53125 47.359375 38.53125 53.46875 
Q 38.53125 58.296875 35.25 61.46875 
Q 31.984375 64.65625 26.8125 64.65625 
Q 21.6875 64.65625 18.265625 61.421875 
Q 14.84375 58.203125 13.875 51.765625 
L 5.078125 53.328125 
Q 6.6875 62.15625 12.390625 67.015625 
Q 18.109375 71.875 26.609375 71.875 
Q 32.46875 71.875 37.390625 69.359375 
Q 42.328125 66.84375 44.9375 62.5 
Q 47.5625 58.15625 47.5625 53.265625 
Q 47.5625 48.640625 45.0625 44.828125 
Q 42.578125 41.015625 37.703125 38.765625 
Q 44.046875 37.3125 47.5625 32.6875 
Q 51.078125 28.078125 51.078125 21.140625 
Q 51.078125 11.765625 44.234375 5.25 
Q 37.40625 -1.265625 26.953125 -1.265625 
Q 17.53125 -1.265625 11.296875 4.34375 
Q 5.078125 9.96875 4.203125 18.890625 
z
" id="ArialMT-51"/>
     </defs>
     <g transform="translate(256.95004 129.666681)scale(0.09 -0.09)">
      <use xlink:href="#ArialMT-115"/>
      <use x="50" xlink:href="#ArialMT-112"/>
      <use x="105.615234" xlink:href="#ArialMT-101"/>
      <use x="161.230469" xlink:href="#ArialMT-101"/>
      <use x="216.845703" xlink:href="#ArialMT-100"/>
      <use x="272.460938" xlink:href="#ArialMT-45"/>
      <use x="305.761719" xlink:href="#ArialMT-109"/>
      <use x="389.0625" xlink:href="#ArialMT-111"/>
      <use x="444.677734" xlink:href="#ArialMT-100"/>
      <use x="500.292969" xlink:href="#ArialMT-117"/>
      <use x="555.908203" xlink:href="#ArialMT-108"/>
      <use x="578.125" xlink:href="#ArialMT-101"/>
      <use x="633.740234" xlink:href="#ArialMT-45"/>
      <use x="667.041016" xlink:href="#ArialMT-51"/>
     </g>
    </g>
   </g>
   <g id="text_3">
    <g clip-path="url(#p16d2453032)">
     <!-- speed-module -->
     <g transform="translate(178.14317 72.418067)scale(0.09 -0.09)">
      <use xlink:href="#ArialMT-115"/>
      <use x="50" xlink:href="#ArialMT-112"/>
      <use x="105.615234" xlink:href="#ArialMT-101"/>
      <use x="161.230469" xlink:href="#ArialMT-101"/>
      <use x="216.845703" xlink:href="#ArialMT-100"/>
      <use x="272.460938" xlink:href="#ArialMT-45"/>
      <use x="305.761719" xlink:href="#ArialMT-109"/>
      <use x="389.0625" xlink:href="#ArialMT-111"/>
      <use x="444.677734" xlink:href="#ArialMT-100"/>
      <use x="500.292969" xlink:href="#ArialMT-117"/>
      <use x="555.908203" xlink:href="#ArialMT-108"/>
      <use x="578.125" xlink:href="#ArialMT-101"/>
     </g>
    </g>
   </g>
   <g id="text_4">
    <g clip-path="url(#p16d2453032)">
     <!-- advanced-circuit -->
     <defs>
      <path d="M 40.4375 6.390625 
Q 35.546875 2.25 31.03125 0.53125 
Q 26.515625 -1.171875 21.34375 -1.171875 
Q 12.796875 -1.171875 8.203125 3 
Q 3.609375 7.171875 3.609375 13.671875 
Q 3.609375 17.484375 5.34375 20.625 
Q 7.078125 23.78125 9.890625 25.6875 
Q 12.703125 27.59375 16.21875 28.5625 
Q 18.796875 29.25 24.03125 29.890625 
Q 34.671875 31.15625 39.703125 32.90625 
Q 39.75 34.71875 39.75 35.203125 
Q 39.75 40.578125 37.25 42.78125 
Q 33.890625 45.75 27.25 45.75 
Q 21.046875 45.75 18.09375 43.578125 
Q 15.140625 41.40625 13.71875 35.890625 
L 5.125 37.0625 
Q 6.296875 42.578125 8.984375 45.96875 
Q 11.671875 49.359375 16.75 51.1875 
Q 21.828125 53.03125 28.515625 53.03125 
Q 35.15625 53.03125 39.296875 51.46875 
Q 43.453125 49.90625 45.40625 47.53125 
Q 47.359375 45.171875 48.140625 41.546875 
Q 48.578125 39.3125 48.578125 33.453125 
L 48.578125 21.734375 
Q 48.578125 9.46875 49.140625 6.21875 
Q 49.703125 2.984375 51.375 0 
L 42.1875 0 
Q 40.828125 2.734375 40.4375 6.390625 
z
M 39.703125 26.03125 
Q 34.90625 24.078125 25.34375 22.703125 
Q 19.921875 21.921875 17.671875 20.9375 
Q 15.4375 19.96875 14.203125 18.09375 
Q 12.984375 16.21875 12.984375 13.921875 
Q 12.984375 10.40625 15.640625 8.0625 
Q 18.3125 5.71875 23.4375 5.71875 
Q 28.515625 5.71875 32.46875 7.9375 
Q 36.421875 10.15625 38.28125 14.015625 
Q 39.703125 17 39.703125 22.796875 
z
" id="ArialMT-97"/>
      <path d="M 21 0 
L 1.265625 51.859375 
L 10.546875 51.859375 
L 21.6875 20.796875 
Q 23.484375 15.765625 25 10.359375 
Q 26.171875 14.453125 28.265625 20.21875 
L 39.796875 51.859375 
L 48.828125 51.859375 
L 29.203125 0 
z
" id="ArialMT-118"/>
      <path d="M 6.59375 0 
L 6.59375 51.859375 
L 14.5 51.859375 
L 14.5 44.484375 
Q 20.21875 53.03125 31 53.03125 
Q 35.6875 53.03125 39.625 51.34375 
Q 43.5625 49.65625 45.515625 46.921875 
Q 47.46875 44.1875 48.25 40.4375 
Q 48.734375 37.984375 48.734375 31.890625 
L 48.734375 0 
L 39.9375 0 
L 39.9375 31.546875 
Q 39.9375 36.921875 38.90625 39.578125 
Q 37.890625 42.234375 35.28125 43.8125 
Q 32.671875 45.40625 29.15625 45.40625 
Q 23.53125 45.40625 19.453125 41.84375 
Q 15.375 38.28125 15.375 28.328125 
L 15.375 0 
z
" id="ArialMT-110"/>
      <path d="M 40.4375 19 
L 49.078125 17.875 
Q 47.65625 8.9375 41.8125 3.875 
Q 35.984375 -1.171875 27.484375 -1.171875 
Q 16.84375 -1.171875 10.375 5.78125 
Q 3.90625 12.75 3.90625 25.734375 
Q 3.90625 34.125 6.6875 40.421875 
Q 9.46875 46.734375 15.15625 49.875 
Q 20.84375 53.03125 27.546875 53.03125 
Q 35.984375 53.03125 41.359375 48.75 
Q 46.734375 44.484375 48.25 36.625 
L 39.703125 35.296875 
Q 38.484375 40.53125 35.375 43.15625 
Q 32.28125 45.796875 27.875 45.796875 
Q 21.234375 45.796875 17.078125 41.03125 
Q 12.9375 36.28125 12.9375 25.984375 
Q 12.9375 15.53125 16.9375 10.796875 
Q 20.953125 6.0625 27.390625 6.0625 
Q 32.5625 6.0625 36.03125 9.234375 
Q 39.5 12.40625 40.4375 19 
z
" id="ArialMT-99"/>
      <path d="M 6.640625 61.46875 
L 6.640625 71.578125 
L 15.4375 71.578125 
L 15.4375 61.46875 
z
M 6.640625 0 
L 6.640625 51.859375 
L 15.4375 51.859375 
L 15.4375 0 
z
" id="ArialMT-105"/>
      <path d="M 6.5 0 
L 6.5 51.859375 
L 14.40625 51.859375 
L 14.40625 44 
Q 17.4375 49.515625 20 51.265625 
Q 22.5625 53.03125 25.640625 53.03125 
Q 30.078125 53.03125 34.671875 50.203125 
L 31.640625 42.046875 
Q 28.421875 43.953125 25.203125 43.953125 
Q 22.3125 43.953125 20.015625 42.21875 
Q 17.71875 40.484375 16.75 37.40625 
Q 15.28125 32.71875 15.28125 27.15625 
L 15.28125 0 
z
" id="ArialMT-114"/>
      <path d="M 25.78125 7.859375 
L 27.046875 0.09375 
Q 23.34375 -0.6875 20.40625 -0.6875 
Q 15.625 -0.6875 12.984375 0.828125 
Q 10.359375 2.34375 9.28125 4.8125 
Q 8.203125 7.28125 8.203125 15.1875 
L 8.203125 45.015625 
L 1.765625 45.015625 
L 1.765625 51.859375 
L 8.203125 51.859375 
L 8.203125 64.703125 
L 16.9375 69.96875 
L 16.9375 51.859375 
L 25.78125 51.859375 
L 25.78125 45.015625 
L 16.9375 45.015625 
L 16.9375 14.703125 
Q 16.9375 10.9375 17.40625 9.859375 
Q 17.875 8.796875 18.921875 8.15625 
Q 19.96875 7.515625 21.921875 7.515625 
Q 23.390625 7.515625 25.78125 7.859375 
z
" id="ArialMT-116"/>
     </defs>
     <g transform="translate(184.645794 173.319311)scale(0.09 -0.09)">
      <use xlink:href="#ArialMT-97"/>
      <use x="55.615234" xlink:href="#ArialMT-100"/>
      <use x="111.230469" xlink:href="#ArialMT-118"/>
      <use x="161.230469" xlink:href="#ArialMT-97"/>
      <use x="216.845703" xlink:href="#ArialMT-110"/>
      <use x="272.460938" xlink:href="#ArialMT-99"/>
      <use x="322.460938" xlink:href="#ArialMT-101"/>
      <use x="378.076172" xlink:href="#ArialMT-100"/>
      <use x="433.691406" xlink:href="#ArialMT-45"/>
      <use x="466.992188" xlink:href="#ArialMT-99"/>
      <use x="516.992188" xlink:href="#ArialMT-105"/>
      <use x="539.208984" xlink:href="#ArialMT-114"/>
      <use x="572.509766" xlink:href="#ArialMT-99"/>
      <use x="622.509766" xlink:href="#ArialMT-117"/>
      <use x="678.125" xlink:href="#ArialMT-105"/>
      <use x="700.341797" xlink:href="#ArialMT-116"/>
     </g>
    </g>
   </g>
   <g id="text_5">
    <g clip-path="url(#p16d2453032)">
     <!-- processing-unit -->
     <defs>
      <path d="M 4.984375 -4.296875 
L 13.53125 -5.5625 
Q 14.0625 -9.515625 16.5 -11.328125 
Q 19.78125 -13.765625 25.4375 -13.765625 
Q 31.546875 -13.765625 34.859375 -11.328125 
Q 38.1875 -8.890625 39.359375 -4.5 
Q 40.046875 -1.8125 39.984375 6.78125 
Q 34.234375 0 25.640625 0 
Q 14.9375 0 9.078125 7.71875 
Q 3.21875 15.4375 3.21875 26.21875 
Q 3.21875 33.640625 5.90625 39.90625 
Q 8.59375 46.1875 13.6875 49.609375 
Q 18.796875 53.03125 25.6875 53.03125 
Q 34.859375 53.03125 40.828125 45.609375 
L 40.828125 51.859375 
L 48.921875 51.859375 
L 48.921875 7.03125 
Q 48.921875 -5.078125 46.453125 -10.125 
Q 44 -15.1875 38.640625 -18.109375 
Q 33.296875 -21.046875 25.484375 -21.046875 
Q 16.21875 -21.046875 10.5 -16.875 
Q 4.78125 -12.703125 4.984375 -4.296875 
z
M 12.25 26.859375 
Q 12.25 16.65625 16.296875 11.96875 
Q 20.359375 7.28125 26.46875 7.28125 
Q 32.515625 7.28125 36.609375 11.9375 
Q 40.71875 16.609375 40.71875 26.5625 
Q 40.71875 36.078125 36.5 40.90625 
Q 32.28125 45.75 26.3125 45.75 
Q 20.453125 45.75 16.34375 40.984375 
Q 12.25 36.234375 12.25 26.859375 
z
" id="ArialMT-103"/>
     </defs>
     <g transform="translate(263.111761 179.583679)scale(0.09 -0.09)">
      <use xlink:href="#ArialMT-112"/>
      <use x="55.615234" xlink:href="#ArialMT-114"/>
      <use x="88.916016" xlink:href="#ArialMT-111"/>
      <use x="144.53125" xlink:href="#ArialMT-99"/>
      <use x="194.53125" xlink:href="#ArialMT-101"/>
      <use x="250.146484" xlink:href="#ArialMT-115"/>
      <use x="300.146484" xlink:href="#ArialMT-115"/>
      <use x="350.146484" xlink:href="#ArialMT-105"/>
      <use x="372.363281" xlink:href="#ArialMT-110"/>
      <use x="427.978516" xlink:href="#ArialMT-103"/>
      <use x="483.59375" xlink:href="#ArialMT-45"/>
      <use x="516.894531" xlink:href="#ArialMT-117"/>
      <use x="572.509766" xlink:href="#ArialMT-110"/>
      <use x="628.125" xlink:href="#ArialMT-105"/>
      <use x="650.341797" xlink:href="#ArialMT-116"/>
     </g>
    </g>
   </g>
   <g id="text_6">
    <g clip-path="url(#p16d2453032)">
     <!-- electronic-circuit -->
     <g transform="translate(225.597041 94.470369)scale(0.09 -0.09)">
      <use xlink:href="#ArialMT-101"/>
      <use x="55.615234" xlink:href="#ArialMT-108"/>
      <use x="77.832031" xlink:href="#ArialMT-101"/>
      <use x="133.447266" xlink:href="#ArialMT-99"/>
      <use x="183.447266" xlink:href="#ArialMT-116"/>
      <use x="211.230469" xlink:href="#ArialMT-114"/>
      <use x="244.53125" xlink:href="#ArialMT-111"/>
      <use x="300.146484" xlink:href="#ArialMT-110"/>
      <use x="355.761719" xlink:href="#ArialMT-105"/>
      <use x="377.978516" xlink:href="#ArialMT-99"/>
      <use x="427.978516" xlink:href="#ArialMT-45"/>
      <use x="461.279297" xlink:href="#ArialMT-99"/>
      <use x="511.279297" xlink:href="#ArialMT-105"/>
      <use x="533.496094" xlink:href="#ArialMT-114"/>
      <use x="566.796875" xlink:href="#ArialMT-99"/>
      <use x="616.796875" xlink:href="#ArialMT-117"/>
      <use x="672.412109" xlink:href="#ArialMT-105"/>
      <use x="694.628906" xlink:href="#ArialMT-116"/>
     </g>
    </g>
   </g>
   <g id="text_7">
    <g clip-path="url(#p16d2453032)">
     <!-- plastic-bar -->
     <defs>
      <path d="M 14.703125 0 
L 6.546875 0 
L 6.546875 71.578125 
L 15.328125 71.578125 
L 15.328125 46.046875 
Q 20.90625 53.03125 29.546875 53.03125 
Q 34.328125 53.03125 38.59375 51.09375 
Q 42.875 49.171875 45.625 45.671875 
Q 48.390625 42.1875 49.953125 37.25 
Q 51.515625 32.328125 51.515625 26.703125 
Q 51.515625 13.375 44.921875 6.09375 
Q 38.328125 -1.171875 29.109375 -1.171875 
Q 19.921875 -1.171875 14.703125 6.5 
z
M 14.59375 26.3125 
Q 14.59375 17 17.140625 12.84375 
Q 21.296875 6.0625 28.375 6.0625 
Q 34.125 6.0625 38.328125 11.0625 
Q 42.53125 16.0625 42.53125 25.984375 
Q 42.53125 36.140625 38.5 40.96875 
Q 34.46875 45.796875 28.765625 45.796875 
Q 23 45.796875 18.796875 40.796875 
Q 14.59375 35.796875 14.59375 26.3125 
z
" id="ArialMT-98"/>
     </defs>
     <g transform="translate(200.601597 264.295562)scale(0.09 -0.09)">
      <use xlink:href="#ArialMT-112"/>
      <use x="55.615234" xlink:href="#ArialMT-108"/>
      <use x="77.832031" xlink:href="#ArialMT-97"/>
      <use x="133.447266" xlink:href="#ArialMT-115"/>
      <use x="183.447266" xlink:href="#ArialMT-116"/>
      <use x="211.230469" xlink:href="#ArialMT-105"/>
      <use x="233.447266" xlink:href="#ArialMT-99"/>
      <use x="283.447266" xlink:href="#ArialMT-45"/>
      <use x="316.748047" xlink:href="#ArialMT-98"/>
      <use x="372.363281" xlink:href="#ArialMT-97"/>
      <use x="427.978516" xlink:href="#ArialMT-114"/>
     </g>
    </g>
   </g>
   <g id="text_8">
    <g clip-path="url(#p16d2453032)">
     <!-- copper-cable -->
     <g transform="translate(134.647835 116.608004)scale(0.09 -0.09)">
      <use xlink:href="#ArialMT-99"/>
      <use x="50" xlink:href="#ArialMT-111"/>
      <use x="105.615234" xlink:href="#ArialMT-112"/>
      <use x="161.230469" xlink:href="#ArialMT-112"/>
      <use x="216.845703" xlink:href="#ArialMT-101"/>
      <use x="272.460938" xlink:href="#ArialMT-114"/>
      <use x="305.761719" xlink:href="#ArialMT-45"/>
      <use x="339.0625" xlink:href="#ArialMT-99"/>
      <use x="389.0625" xlink:href="#ArialMT-97"/>
      <use x="444.677734" xlink:href="#ArialMT-98"/>
      <use x="500.292969" xlink:href="#ArialMT-108"/>
      <use x="522.509766" xlink:href="#ArialMT-101"/>
     </g>
    </g>
   </g>
   <g id="text_9">
    <g clip-path="url(#p16d2453032)">
     <!-- iron-plate -->
     <g transform="translate(333.785884 90.730365)scale(0.09 -0.09)">
      <use xlink:href="#ArialMT-105"/>
      <use x="22.216797" xlink:href="#ArialMT-114"/>
      <use x="55.517578" xlink:href="#ArialMT-111"/>
      <use x="111.132812" xlink:href="#ArialMT-110"/>
      <use x="166.748047" xlink:href="#ArialMT-45"/>
      <use x="200.048828" xlink:href="#ArialMT-112"/>
      <use x="255.664062" xlink:href="#ArialMT-108"/>
      <use x="277.880859" xlink:href="#ArialMT-97"/>
      <use x="333.496094" xlink:href="#ArialMT-116"/>
      <use x="361.279297" xlink:href="#ArialMT-101"/>
     </g>
    </g>
   </g>
   <g id="text_10">
    <g clip-path="url(#p16d2453032)">
     <!-- iron-ore -->
     <g transform="translate(385.742791 22.471765)scale(0.09 -0.09)">
      <use xlink:href="#ArialMT-105"/>
      <use x="22.216797" xlink:href="#ArialMT-114"/>
      <use x="55.517578" xlink:href="#ArialMT-111"/>
      <use x="111.132812" xlink:href="#ArialMT-110"/>
      <use x="166.748047" xlink:href="#ArialMT-45"/>
      <use x="200.048828" xlink:href="#ArialMT-111"/>
      <use x="255.664062" xlink:href="#ArialMT-114"/>
      <use x="288.964844" xlink:href="#ArialMT-101"/>
     </g>
    </g>
   </g>
   <g id="text_11">
    <g clip-path="url(#p16d2453032)">
     <!-- sulfuric-acid -->
     <defs>
      <path d="M 8.6875 0 
L 8.6875 45.015625 
L 0.921875 45.015625 
L 0.921875 51.859375 
L 8.6875 51.859375 
L 8.6875 57.375 
Q 8.6875 62.59375 9.625 65.140625 
Q 10.890625 68.5625 14.078125 70.671875 
Q 17.28125 72.796875 23.046875 72.796875 
Q 26.765625 72.796875 31.25 71.921875 
L 29.9375 64.265625 
Q 27.203125 64.75 24.75 64.75 
Q 20.75 64.75 19.09375 63.03125 
Q 17.4375 61.328125 17.4375 56.640625 
L 17.4375 51.859375 
L 27.546875 51.859375 
L 27.546875 45.015625 
L 17.4375 45.015625 
L 17.4375 0 
z
" id="ArialMT-102"/>
     </defs>
     <g transform="translate(353.336378 180.859647)scale(0.09 -0.09)">
      <use xlink:href="#ArialMT-115"/>
      <use x="50" xlink:href="#ArialMT-117"/>
      <use x="105.615234" xlink:href="#ArialMT-108"/>
      <use x="127.832031" xlink:href="#ArialMT-102"/>
      <use x="155.615234" xlink:href="#ArialMT-117"/>
      <use x="211.230469" xlink:href="#ArialMT-114"/>
      <use x="244.53125" xlink:href="#ArialMT-105"/>
      <use x="266.748047" xlink:href="#ArialMT-99"/>
      <use x="316.748047" xlink:href="#ArialMT-45"/>
      <use x="350.048828" xlink:href="#ArialMT-97"/>
      <use x="405.664062" xlink:href="#ArialMT-99"/>
      <use x="455.664062" xlink:href="#ArialMT-105"/>
      <use x="477.880859" xlink:href="#ArialMT-100"/>
     </g>
    </g>
   </g>
   <g id="text_12">
    <g clip-path="url(#p16d2453032)">
     <!-- copper-plate -->
     <g transform="translate(63.652009 78.981253)scale(0.09 -0.09)">
      <use xlink:href="#ArialMT-99"/>
      <use x="50" xlink:href="#ArialMT-111"/>
      <use x="105.615234" xlink:href="#ArialMT-112"/>
      <use x="161.230469" xlink:href="#ArialMT-112"/>
      <use x="216.845703" xlink:href="#ArialMT-101"/>
      <use x="272.460938" xlink:href="#ArialMT-114"/>
      <use x="305.761719" xlink:href="#ArialMT-45"/>
      <use x="339.0625" xlink:href="#ArialMT-112"/>
      <use x="394.677734" xlink:href="#ArialMT-108"/>
      <use x="416.894531" xlink:href="#ArialMT-97"/>
      <use x="472.509766" xlink:href="#ArialMT-116"/>
      <use x="500.292969" xlink:href="#ArialMT-101"/>
     </g>
    </g>
   </g>
   <g id="text_13">
    <g clip-path="url(#p16d2453032)">
     <!-- copper-ore -->
     <g transform="translate(2.368668 37.147824)scale(0.09 -0.09)">
      <use xlink:href="#ArialMT-99"/>
      <use x="50" xlink:href="#ArialMT-111"/>
      <use x="105.615234" xlink:href="#ArialMT-112"/>
      <use x="161.230469" xlink:href="#ArialMT-112"/>
      <use x="216.845703" xlink:href="#ArialMT-101"/>
      <use x="272.460938" xlink:href="#ArialMT-114"/>
      <use x="305.761719" xlink:href="#ArialMT-45"/>
      <use x="339.0625" xlink:href="#ArialMT-111"/>
      <use x="394.677734" xlink:href="#ArialMT-114"/>
      <use x="427.978516" xlink:href="#ArialMT-101"/>
     </g>
    </g>
   </g>
   <g id="text_14">
    <g clip-path="url(#p16d2453032)">
     <!-- petroleum-gas -->
     <g transform="translate(272.117691 309.66662)scale(0.09 -0.09)">
      <use xlink:href="#ArialMT-112"/>
      <use x="55.615234" xlink:href="#ArialMT-101"/>
      <use x="111.230469" xlink:href="#ArialMT-116"/>
      <use x="139.013672" xlink:href="#ArialMT-114"/>
      <use x="172.314453" xlink:href="#ArialMT-111"/>
      <use x="227.929688" xlink:href="#ArialMT-108"/>
      <use x="250.146484" xlink:href="#ArialMT-101"/>
      <use x="305.761719" xlink:href="#ArialMT-117"/>
      <use x="361.376953" xlink:href="#ArialMT-109"/>
      <use x="444.677734" xlink:href="#ArialMT-45"/>
      <use x="477.978516" xlink:href="#ArialMT-103"/>
      <use x="533.59375" xlink:href="#ArialMT-97"/>
      <use x="589.208984" xlink:href="#ArialMT-115"/>
     </g>
    </g>
   </g>
   <g id="text_15">
    <g clip-path="url(#p16d2453032)">
     <!-- coal -->
     <g transform="translate(160.07146 327.781517)scale(0.09 -0.09)">
      <use xlink:href="#ArialMT-99"/>
      <use x="50" xlink:href="#ArialMT-111"/>
      <use x="105.615234" xlink:href="#ArialMT-97"/>
      <use x="161.230469" xlink:href="#ArialMT-108"/>
     </g>
    </g>
   </g>
   <g id="text_16">
    <g clip-path="url(#p16d2453032)">
     <!-- sulfur -->
     <g transform="translate(368.036866 272.460994)scale(0.09 -0.09)">
      <use xlink:href="#ArialMT-115"/>
      <use x="50" xlink:href="#ArialMT-117"/>
      <use x="105.615234" xlink:href="#ArialMT-108"/>
      <use x="127.832031" xlink:href="#ArialMT-102"/>
      <use x="155.615234" xlink:href="#ArialMT-117"/>
      <use x="211.230469" xlink:href="#ArialMT-114"/>
     </g>
    </g>
   </g>
   <g id="text_17">
    <g clip-path="url(#p16d2453032)">
     <!-- water -->
     <defs>
      <path d="M 16.15625 0 
L 0.296875 51.859375 
L 9.375 51.859375 
L 17.625 21.921875 
L 20.703125 10.796875 
Q 20.90625 11.625 23.390625 21.484375 
L 31.640625 51.859375 
L 40.671875 51.859375 
L 48.4375 21.78125 
L 51.03125 11.859375 
L 54 21.875 
L 62.890625 51.859375 
L 71.4375 51.859375 
L 55.21875 0 
L 46.09375 0 
L 37.84375 31.0625 
L 35.84375 39.890625 
L 25.34375 0 
z
" id="ArialMT-119"/>
     </defs>
     <g transform="translate(425.668519 229.68623)scale(0.09 -0.09)">
      <use xlink:href="#ArialMT-119"/>
      <use x="72.216797" xlink:href="#ArialMT-97"/>
      <use x="127.832031" xlink:href="#ArialMT-116"/>
      <use x="155.615234" xlink:href="#ArialMT-101"/>
      <use x="211.230469" xlink:href="#ArialMT-114"/>
     </g>
    </g>
   </g>
  </g>
 </g>
 <defs>
  <clipPath id="p16d2453032">
   <rect height="345.6" width="460.8" x="0" y="0"/>
  </clipPath>
 </defs>
</svg>
